<svg xmlns="http://www.w3.org/2000/svg" version="1.1" xmlns:xlink="http://www.w3.org/1999/xlink" xmlns:svgjs="http://svgjs.com/svgjs" width="512" height="512" x="0" y="0" viewBox="0 0 64 64" style="enable-background:new 0 0 512 512" xml:space="preserve" class=""><g><path fill="#2892e6" d="M58 12v3c0 1.66-1.34 3-3 3s-3-1.34-3-3V5c0-.83.34-1.58.88-2.12S54.17 2 55 2c1.66 0 3 1.34 3 3v3zM12 12v3c0 .83-.34 1.58-.88 2.12S9.83 18 9 18c-1.66 0-3-1.34-3-3V5c0-1.66 1.34-3 3-3s3 1.34 3 3v3z" data-original="#ccd1d9" class="" opacity="1"></path><g fill="#b4dd7f"><path d="M6 8v4H4c-1.1 0-2-.9-2-2 0-.55.22-1.05.59-1.41C2.95 8.22 3.45 8 4 8zM12 8h4v4h-4zM60 8c1.1 0 2 .9 2 2 0 .55-.22 1.05-.59 1.41-.36.37-.86.59-1.41.59h-2V8zM48 8h4v4h-4z" fill="#1dd8b0" data-original="#b4dd7f" class="" opacity="1"></path></g><path fill="#e8b424" d="M47.91 36.55A5.999 5.999 0 0 1 44 45.91V46c0 3.31-2.69 6-6 6s-6-2.69-6-6c0 3.31-2.69 6-6 6s-6-2.69-6-6c-3.31 0-6-2.69-6-6 0-1.82.81-3.45 2.09-4.55A5.999 5.999 0 0 1 20 26.09V26c0-.75.14-1.48.4-2.14A5.99 5.99 0 0 1 26 20c3.31 0 6 2.69 6 6 0-1.66.67-3.16 1.76-4.24A5.944 5.944 0 0 1 38 20a5.99 5.99 0 0 1 5.6 3.86c.26.66.4 1.39.4 2.14 3.31 0 6 2.69 6 6 0 1.82-.81 3.45-2.09 4.55zM48 8v4c0 1.66-1.34 3-3 3s-3-1.34-3-3V8a2.996 2.996 0 0 1 5.12-2.12c.54.54.88 1.29.88 2.12z" data-original="#fcd770" class="" opacity="1"></path><path fill="#1dd8b0" d="M22 8h20v4H22z" data-original="#b4dd7f" class="" opacity="1"></path><path fill="#2892e6" d="M41 61v1h-6v-1a2.996 2.996 0 0 1 5.12-2.12c.54.54.88 1.29.88 2.12zM29 61v1h-6v-1a2.996 2.996 0 0 1 5.12-2.12c.54.54.88 1.29.88 2.12z" data-original="#838f9b" class="" opacity="1"></path><path fill="#e8b424" d="M22 8v4c0 1.66-1.34 3-3 3s-3-1.34-3-3V8a2.996 2.996 0 0 1 5.12-2.12c.54.54.88 1.29.88 2.12z" data-original="#fcd770" class="" opacity="1"></path><path d="M60 7h-1V5c0-2.206-1.794-4-4-4s-4 1.794-4 4v2h-2.142c-.447-1.72-2-3-3.858-3s-3.411 1.28-3.858 3H22.858c-.447-1.72-2-3-3.858-3s-3.411 1.28-3.858 3H13V5c0-2.206-1.794-4-4-4S5 2.794 5 5v2H4c-1.654 0-3 1.346-3 3s1.346 3 3 3h1v2c0 2.206 1.794 4 4 4s4-1.794 4-4v-2h2.142A3.995 3.995 0 0 0 18 15.858V18c0 2.071.458 4.051 1.324 5.906a7.002 7.002 0 0 0-.288 1.38 6.97 6.97 0 0 0-4.2 10.005A6.966 6.966 0 0 0 13 40c0 3.544 2.649 6.473 6.069 6.931A7.005 7.005 0 0 0 25 52.92v4.222c-1.72.447-3 2-3 3.858v2h8v-2c0-1.858-1.28-3.411-3-3.858v-4.217a7.014 7.014 0 0 0 5-3.322 7.014 7.014 0 0 0 5 3.322v4.217c-1.72.447-3 2-3 3.858v2h8v-2c0-1.858-1.28-3.411-3-3.858v-4.221c3.155-.454 5.639-3.012 5.964-6.207a6.97 6.97 0 0 0 4.2-10.005A6.966 6.966 0 0 0 51 32c0-3.544-2.649-6.473-6.069-6.931a7.052 7.052 0 0 0-.253-1.168A13.832 13.832 0 0 0 46 18v-2.142A3.995 3.995 0 0 0 48.858 13H51v2c0 2.206 1.794 4 4 4s4-1.794 4-4v-2h1c1.654 0 3-1.346 3-3s-1.346-3-3-3zM4 11c-.551 0-1-.449-1-1s.449-1 1-1h1v2zm7 4c0 1.103-.897 2-2 2s-2-.897-2-2V5c0-1.103.897-2 2-2s2 .897 2 2zm2-6h2v2h-2zm28 2H23V9h18zm-24 1V8c0-1.103.897-2 2-2s2 .897 2 2v4c0 1.103-.897 2-2 2s-2-.897-2-2zm11 49h-4c0-1.103.897-2 2-2s2 .897 2 2zm12 0h-4c0-1.103.897-2 2-2s2 .897 2 2zm9-29c0 2.757-2.243 5-5 5v2a6.944 6.944 0 0 0 3.574-.992A4.96 4.96 0 0 1 48 40a4.977 4.977 0 0 1-4.169 4.924l-.831.229V46c0 2.757-2.243 5-5 5s-5-2.243-5-5h-2c0 2.757-2.243 5-5 5s-5-2.243-5-5 2.243-5 5-5v-2c-3.488 0-6.379 2.566-6.906 5.908C16.769 44.48 15 42.447 15 40c0-2.757 2.243-5 5-5v-2a6.944 6.944 0 0 0-3.574.992A4.96 4.96 0 0 1 16 32a4.977 4.977 0 0 1 4.169-4.924l.831-.229V26c0-2.757 2.243-5 5-5s5 2.243 5 5h2c0-2.757 2.243-5 5-5s5 2.243 5 5-2.243 5-5 5v2c3.488 0 6.379-2.566 6.906-5.908C47.231 27.52 49 29.553 49 32zM38 19a7.003 7.003 0 0 0-6 3.397A7.003 7.003 0 0 0 26 19a6.984 6.984 0 0 0-5.432 2.599A11.903 11.903 0 0 1 20 18v-2.142A3.995 3.995 0 0 0 22.858 13h18.284A3.995 3.995 0 0 0 44 15.858V18c0 1.24-.203 2.44-.566 3.595A6.991 6.991 0 0 0 38 19zm9-7c0 1.103-.897 2-2 2s-2-.897-2-2V8c0-1.103.897-2 2-2s2 .897 2 2zm2-1V9h2v2zm8 4c0 1.103-.897 2-2 2s-2-.897-2-2V5c0-1.103.897-2 2-2s2 .897 2 2zm3-4h-1V9h1c.551 0 1 .449 1 1s-.449 1-1 1z" fill="#ffffff" data-original="#000000" class="" opacity="1"></path><path d="M23 46c0 1.654 1.346 3 3 3v-2c-.551 0-1-.449-1-1s.449-1 1-1v-2c-1.654 0-3 1.346-3 3zM38 42v2c2.206 0 4-1.794 4-4h-2c0 1.103-.897 2-2 2zM37 35c0 1.103-.897 2-2 2v2c2.206 0 4-1.794 4-4zM30 42v2c2.206 0 4-1.794 4-4h-2c0 1.103-.897 2-2 2zM32 32c0-2.206-1.794-4-4-4v2c1.103 0 2 .897 2 2zM21 29v2c1.103 0 2 .897 2 2h2c0-2.206-1.794-4-4-4zM41 26c0-1.654-1.346-3-3-3v2c.551 0 1 .449 1 1s-.449 1-1 1v2c1.654 0 3-1.346 3-3z" fill="#ffffff" data-original="#000000" class="" opacity="1"></path></g></svg>